<svg width="131" height="34" viewBox="0 0 131 34" fill="none" xmlns="http://www.w3.org/2000/svg">
<path d="M12.2272 14.9882L0.1112 28.7763C0.111656 28.7791 0.112566 28.7815 0.113021 28.7844C0.484586 30.2815 1.75997 31.384 3.27365 31.384C3.87874 31.384 4.44684 31.2086 4.93403 30.9006L4.97272 30.8763L18.6108 22.4385L12.2272 14.9882Z" fill="#EB3131"/>
<path d="M24.4845 12.6402L24.4729 12.6316L18.5854 8.97195L11.9523 15.3008L18.6085 22.4369L24.4649 18.8136C25.4917 18.2192 26.1887 17.0586 26.1887 15.7202C26.1887 14.3914 25.5011 13.2365 24.4845 12.6402Z" fill="#F6B60B"/>
<path d="M0.11111 2.60715C0.0382811 2.89511 0 3.19674 0 3.50996V27.8741C0 28.1868 0.0374609 28.4893 0.1112 28.7763L12.6438 15.341L0.11111 2.60715Z" fill="#5778C5"/>
<path d="M12.3167 15.6918L18.5879 8.96982L4.96531 0.501494C4.47015 0.183514 3.89226 0 3.27386 0C1.76018 0 0.483088 1.10439 0.111409 2.60339C0.110954 2.60485 0.11111 2.60581 0.11111 2.60715L12.3167 15.6918Z" fill="#3BAD49"/>
<path d="M109.511 29.026H111.635V13.7719H109.511V29.026ZM128.639 19.2668L126.204 25.8802H126.132L123.605 19.2668H121.318L125.106 28.5103L122.946 33.6519H125.162L131 19.2668H128.639ZM116.596 27.2935C115.899 27.2935 114.93 26.9207 114.93 25.998C114.93 24.8206 116.138 24.3692 117.181 24.3692C118.115 24.3692 118.553 24.5851 119.121 24.8798C118.956 26.2925 117.821 27.2935 116.596 27.2935ZM116.852 18.933C115.314 18.933 113.722 19.6594 113.063 21.2686L114.948 22.1123C115.351 21.2686 116.101 20.9936 116.888 20.9936C117.986 20.9936 119.103 21.7005 119.121 22.9564V23.1132C118.736 22.8777 117.914 22.5246 116.906 22.5246C114.875 22.5246 112.806 23.7214 112.806 25.9588C112.806 27.9998 114.472 29.3149 116.339 29.3149C117.767 29.3149 118.553 28.628 119.048 27.8235H119.121V29.0008H121.171V23.1523C121.171 20.4445 119.286 18.933 116.852 18.933ZM103.728 21.1237H100.707V15.8949H103.728C105.315 15.8949 106.217 17.3043 106.217 18.5093C106.217 19.6914 105.315 21.1237 103.728 21.1237ZM103.673 13.7719H98.585V29.026H100.707V23.2467H103.673C106.027 23.2467 108.34 21.4197 108.34 18.5093C108.34 15.5989 106.027 13.7719 103.673 13.7719ZM75.9263 27.2963C74.4593 27.2963 73.231 25.9793 73.231 24.1704C73.231 22.3426 74.4593 21.0056 75.9263 21.0056C77.3747 21.0056 78.5114 22.3426 78.5114 24.1704C78.5114 25.9793 77.3747 27.2963 75.9263 27.2963ZM78.3647 20.1209H78.2913C77.8148 19.5117 76.8977 18.9612 75.7428 18.9612C73.3226 18.9612 71.1043 21.2414 71.1043 24.1704C71.1043 27.0799 73.3226 29.3406 75.7428 29.3406C76.8977 29.3406 77.8148 28.7901 78.2913 28.1614H78.3647V28.9083C78.3647 30.8941 77.3747 31.9555 75.7796 31.9555C74.4779 31.9555 73.6712 30.9526 73.3408 30.1075L71.4893 30.9331C72.021 32.3092 73.4329 33.9999 75.7796 33.9999C78.2731 33.9999 80.3816 32.4269 80.3816 28.5937V19.2758H78.3647V20.1209ZM81.8482 29.026H83.975V13.7714H81.8482V29.026ZM87.1103 23.9936C87.0552 21.9883 88.5587 20.9664 89.6403 20.9664C90.4843 20.9664 91.199 21.4182 91.4368 22.0675L87.1103 23.9936ZM93.7107 22.2639C93.3078 21.1037 92.0787 18.9612 89.5669 18.9612C87.0734 18.9612 85.0018 21.0646 85.0018 24.1509C85.0018 27.0604 87.0552 29.3406 89.8052 29.3406C92.0241 29.3406 93.3078 27.8859 93.8393 27.0408L92.1891 25.861C91.6394 26.7262 90.8872 27.2963 89.8052 27.2963C88.7236 27.2963 87.9537 26.7653 87.4584 25.7238L93.9303 22.8535L93.7107 22.2639ZM42.1476 20.5536V22.7552H47.0611C46.9144 23.9936 46.5294 24.8978 45.9426 25.527C45.2278 26.2939 44.1093 27.139 42.1476 27.139C39.1223 27.139 36.7573 24.5245 36.7573 21.281C36.7573 18.0374 39.1223 15.4226 42.1476 15.4226C43.7794 15.4226 44.9709 16.1108 45.851 16.9955L47.2994 15.4426C46.0711 14.1842 44.4392 13.221 42.1476 13.221C38.0038 13.221 34.5204 16.8382 34.5204 21.281C34.5204 25.7238 38.0038 29.3406 42.1476 29.3406C44.3845 29.3406 46.0711 28.5547 47.391 27.0799C48.7478 25.6252 49.1697 23.5808 49.1697 21.9298C49.1697 21.4182 49.1332 20.9469 49.0594 20.5536H42.1476ZM54.7559 27.2963C53.2889 27.2963 52.0237 25.9988 52.0237 24.1509C52.0237 22.2834 53.2889 21.0056 54.7559 21.0056C56.2224 21.0056 57.4876 22.2834 57.4876 24.1509C57.4876 25.9988 56.2224 27.2963 54.7559 27.2963ZM54.7559 18.9612C52.0788 18.9612 49.8969 21.1432 49.8969 24.1509C49.8969 27.139 52.0788 29.3406 54.7559 29.3406C57.4325 29.3406 59.6144 27.139 59.6144 24.1509C59.6144 21.1432 57.4325 18.9612 54.7559 18.9612ZM65.3549 27.2963C63.8884 27.2963 62.6231 25.9988 62.6231 24.1509C62.6231 22.2834 63.8884 21.0056 65.3549 21.0056C66.8215 21.0056 68.0866 22.2834 68.0866 24.1509C68.0866 25.9988 66.8215 27.2963 65.3549 27.2963ZM65.3549 18.9612C62.6778 18.9612 60.4964 21.1432 60.4964 24.1509C60.4964 27.139 62.6778 29.3406 65.3549 29.3406C68.0315 29.3406 70.2134 27.139 70.2134 24.1509C70.2134 21.1432 68.0315 18.9612 65.3549 18.9612Z" fill="white"/>
<path d="M37.2751 4.22363H38.2822C38.4556 4.24518 38.6316 4.23065 38.799 4.18095C38.9665 4.13124 39.1218 4.04745 39.2552 3.93484C39.3887 3.82223 39.4973 3.68326 39.5742 3.52668C39.6511 3.37009 39.6948 3.1993 39.7023 3.02505C39.7023 2.33162 39.1796 1.88369 38.2933 1.88369C38.1157 1.85892 37.9349 1.86992 37.7616 1.91605C37.5883 1.96218 37.4261 2.0425 37.2844 2.15228C37.1427 2.26205 37.0245 2.39905 36.9367 2.55519C36.849 2.71133 36.7934 2.88344 36.7734 3.06135H35.6676C35.6867 2.73839 35.7721 2.42279 35.9186 2.13421C36.0651 1.84563 36.2696 1.59025 36.5192 1.38396C36.7689 1.17768 37.0584 1.02491 37.3698 0.935161C37.6811 0.845415 38.0077 0.820617 38.329 0.862309C39.812 0.862309 40.8561 1.6911 40.8561 2.88414C40.8596 3.28382 40.7257 3.6726 40.4766 3.98558C40.2276 4.29856 39.8786 4.5168 39.4878 4.60388V4.69248C39.9511 4.71299 40.3874 4.91577 40.7013 5.25647C41.0152 5.59718 41.1812 6.0481 41.1631 6.51066C41.1288 6.84319 41.0283 7.16554 40.8676 7.45883C40.7069 7.75211 40.4892 8.01042 40.2272 8.21861C39.9652 8.4268 39.6642 8.58069 39.3419 8.67125C39.0196 8.76181 38.6823 8.78723 38.35 8.746C38.017 8.79133 37.6783 8.76925 37.354 8.6811C37.0297 8.59294 36.7266 8.44051 36.4626 8.23288C36.1986 8.02526 35.9791 7.7667 35.8174 7.47261C35.6556 7.17852 35.5548 6.85493 35.521 6.52113H36.644C36.7118 7.2404 37.3737 7.70437 38.35 7.70437C39.3263 7.70437 39.9636 7.18323 39.9636 6.44857C39.9636 5.70345 39.3633 5.24445 38.3143 5.24445H37.2751V4.22363Z" fill="white"/>
<path d="M42.4389 6.9587C42.4389 5.93732 43.202 5.34849 44.553 5.26481L46.0927 5.17621V4.68644C46.0927 4.08715 45.697 3.74874 44.929 3.74874C44.3028 3.74874 43.8701 3.97825 43.7444 4.37942H42.6584C42.773 3.4048 43.6926 2.77967 44.982 2.77967C46.407 2.77967 47.2107 3.48785 47.2107 4.68644V8.56337H46.1297V7.76596H46.0409C45.8608 8.052 45.6078 8.28518 45.3078 8.4417C45.0079 8.59822 44.6717 8.67247 44.3336 8.65686C44.095 8.68164 43.8538 8.65623 43.6257 8.58226C43.3975 8.50829 43.1874 8.38742 43.0089 8.22742C42.8304 8.06742 42.6874 7.87186 42.5893 7.65334C42.4911 7.43482 42.4399 7.19819 42.4389 6.9587ZM46.0927 6.47385V5.99946L44.7046 6.08806C43.9218 6.14036 43.5668 6.40617 43.5668 6.90639C43.5668 7.41708 44.0106 7.71426 44.6208 7.71426C44.7996 7.73234 44.9802 7.71432 45.1519 7.66129C45.3236 7.60825 45.4828 7.52128 45.6202 7.40555C45.7575 7.28982 45.8701 7.14769 45.9513 6.98763C46.0324 6.82757 46.0805 6.65284 46.0927 6.47385Z" fill="white"/>
<path d="M50.1877 3.83215V8.56372H49.066V2.88953H52.8085V3.83209L50.1877 3.83215Z" fill="white"/>
<path d="M59.6065 5.72511C59.6065 7.5279 58.6931 8.6582 57.2582 8.6582C56.906 8.68221 56.5542 8.60527 56.2444 8.43642C55.9345 8.26756 55.6793 8.01384 55.509 7.70511H55.4203V10.4511H54.2985V2.89048H55.3784V3.82822H55.4622C55.6356 3.50871 55.894 3.24325 56.209 3.06116C56.524 2.87907 56.8833 2.78743 57.2471 2.79638C58.6931 2.79634 59.6065 3.92169 59.6065 5.72511ZM58.4527 5.72511C58.4527 4.52653 57.8844 3.80234 56.934 3.80234C55.9899 3.80234 55.3993 4.54191 55.3993 5.73004C55.3993 6.91263 55.9898 7.65282 56.9291 7.65282C57.8844 7.65281 58.4527 6.92861 58.4527 5.72511Z" fill="white"/>
<path d="M61.1005 10.596V9.63187C61.2219 9.64727 61.3442 9.65425 61.4665 9.65278C61.7055 9.67046 61.9427 9.5994 62.1324 9.45326C62.3221 9.30711 62.4511 9.09617 62.4946 8.8609L62.5784 8.58464L60.5211 2.88953H61.7427L63.1677 7.39652H63.2565L64.6765 2.88953H65.8661L63.7471 8.79815C63.2614 10.1789 62.724 10.6219 61.5652 10.6219C61.4715 10.6219 61.2053 10.6114 61.1005 10.596Z" fill="white"/>
<path d="M66.7404 6.95345H67.8573C67.967 7.45371 68.4366 7.71455 69.0937 7.71455C69.8407 7.71455 70.2992 7.38599 70.2992 6.87532C70.2992 6.32833 69.8875 6.06745 69.0937 6.06745H68.2431V5.19743H69.0789C69.7568 5.19743 70.102 4.93717 70.102 4.46279C70.102 4.04623 69.7679 3.72814 69.0789 3.72814C68.4514 3.72814 67.9929 3.99395 67.9201 4.44188H66.839C66.9199 3.92718 67.1998 3.46469 67.6187 3.15391C68.0375 2.84312 68.5619 2.70885 69.0789 2.77998C70.4299 2.77998 71.2028 3.38974 71.2028 4.34836C71.2091 4.6153 71.1234 4.87632 70.9601 5.08777C70.7967 5.29922 70.5656 5.44828 70.3054 5.51003V5.59863C70.6152 5.63852 70.8996 5.79056 71.1045 6.02591C71.3095 6.26125 71.4208 6.56351 71.4173 6.87534C71.4173 7.954 70.4977 8.66768 69.0937 8.66768C67.8523 8.66764 66.844 8.09973 66.7404 6.95345Z" fill="white"/>
<path d="M73.0323 8.56372V2.88953H74.1442V6.79232H74.233L76.8525 2.88954H77.9644V8.56373H76.8525V4.64005H76.7687L74.1442 8.56375L73.0323 8.56372Z" fill="white"/>
<path d="M84.0898 3.83307H82.2999V8.56464H81.1769V3.83307H79.387V2.89051H84.0898V3.83307Z" fill="white"/>
<path d="M90.1324 7.03141C89.9796 7.54998 89.6491 7.99845 89.1987 8.2985C88.7483 8.59854 88.2066 8.7311 87.6683 8.673C87.2938 8.68287 86.9217 8.61127 86.5777 8.46317C86.2337 8.31507 85.9261 8.09402 85.6763 7.81536C85.4265 7.5367 85.2404 7.20711 85.131 6.84946C85.0216 6.49181 84.9914 6.11467 85.0426 5.74422C84.9928 5.37263 85.0234 4.99469 85.1326 4.63597C85.2418 4.27725 85.4269 3.94613 85.6754 3.66504C85.9239 3.38394 86.23 3.15942 86.573 3.00669C86.9159 2.85395 87.2878 2.77656 87.6633 2.77976C89.2449 2.77976 90.2002 3.85842 90.2002 5.64021V6.03097H86.1866V6.09373C86.1688 6.302 86.1949 6.51168 86.2631 6.70929C86.3314 6.90691 86.4403 7.08808 86.5828 7.24118C86.7254 7.39427 86.8985 7.51589 87.0909 7.59823C87.2834 7.68057 87.491 7.7218 87.7003 7.71927C87.9685 7.75128 88.2401 7.70297 88.4807 7.58048C88.7212 7.45799 88.9199 7.26686 89.0514 7.03138L90.1324 7.03141ZM86.1865 5.20278H89.0563C89.0704 5.01244 89.0446 4.82124 88.9803 4.64147C88.9161 4.4617 88.8149 4.29732 88.6833 4.1589C88.5517 4.02047 88.3925 3.91106 88.216 3.83769C88.0395 3.76432 87.8495 3.72861 87.6584 3.73286C87.4643 3.73022 87.2717 3.76645 87.0919 3.83939C86.9121 3.91234 86.7488 4.02052 86.6115 4.15755C86.4743 4.29459 86.366 4.45768 86.293 4.63721C86.2201 4.81674 86.1838 5.00905 86.1865 5.20278Z" fill="white"/>
<path d="M94.8882 2.88953H97.4509C98.5628 2.88953 99.2149 3.4519 99.2149 4.33236C99.2166 4.61173 99.1222 4.88323 98.9474 5.10141C98.7726 5.31959 98.528 5.47122 98.2546 5.53094V5.61953C98.5866 5.64047 98.8978 5.78788 99.124 6.03132C99.3502 6.27476 99.4741 6.59563 99.4701 6.92764C99.4701 7.91764 98.7243 8.56369 97.4768 8.56369H94.8882V2.88953ZM96.0001 3.74909V5.21838H97.1119C97.7899 5.21838 98.1141 4.95811 98.1141 4.47819C98.1141 4.0358 97.8318 3.74908 97.2365 3.74908L96.0001 3.74909ZM96.0001 6.04166V7.70417H97.3302C97.9934 7.70417 98.3484 7.41192 98.3484 6.87539C98.3484 6.30748 97.9465 6.04167 97.1896 6.04167L96.0001 6.04166Z" fill="white"/>
</svg>
