<svg width="126" height="32" viewBox="0 0 126 32" fill="none" xmlns="http://www.w3.org/2000/svg">
<g id="Vector">
<path d="M19.4122 15.0266C19.4263 13.9436 19.7171 12.8816 20.2577 11.9396C20.7982 10.9976 21.5708 10.2061 22.5037 9.63881C21.9111 8.80163 21.1293 8.11267 20.2204 7.62664C19.3115 7.14061 18.3005 6.87091 17.2678 6.83895C15.0648 6.61022 12.9292 8.14284 11.8066 8.14284C10.6623 8.14284 8.93388 6.86166 7.07268 6.89953C5.86881 6.938 4.69554 7.28428 3.66719 7.90462C2.63885 8.52496 1.79049 9.39821 1.20478 10.4393C-1.33232 14.7843 0.560134 21.17 2.99051 24.6822C4.20648 26.402 5.6276 28.323 7.48712 28.2549C9.30677 28.1803 9.98637 27.1072 12.1828 27.1072C14.3589 27.1072 14.9965 28.2549 16.8938 28.2116C18.8463 28.1803 20.0765 26.4842 21.2499 24.7481C22.1236 23.5226 22.7958 22.1683 23.2418 20.7351C22.1075 20.2606 21.1394 19.4662 20.4584 18.451C19.7773 17.4359 19.4135 16.2449 19.4122 15.0266Z" fill="white"/>
<path d="M15.8284 4.52953C16.8931 3.26537 17.4176 1.64051 17.2906 0C15.6641 0.168976 14.1616 0.937896 13.0826 2.15355C12.5551 2.74743 12.151 3.43833 11.8936 4.18677C11.6361 4.9352 11.5303 5.72648 11.5822 6.51538C12.3958 6.52367 13.2006 6.34925 13.9361 6.00527C14.6716 5.66128 15.3187 5.1567 15.8284 4.52953Z" fill="white"/>
<path d="M41.2432 24.0747H35.2719L33.8378 28.263H31.3086L36.9646 12.7673H39.5924L45.2484 28.263H42.676L41.2432 24.0747ZM35.8903 22.142H40.6236L38.2902 15.3447H38.2249L35.8903 22.142Z" fill="white"/>
<path d="M57.4632 22.6146C57.4632 26.1254 55.5635 28.381 52.6967 28.381C51.9705 28.4186 51.2483 28.2531 50.6127 27.9036C49.9771 27.554 49.454 27.0345 49.103 26.4044H49.0488V32.0002H46.7043V16.9652H48.9736V18.8443H49.0168C49.3838 18.2173 49.9158 17.7004 50.5562 17.3487C51.1966 16.997 51.9214 16.8237 52.6535 16.847C55.5524 16.847 57.4632 19.1136 57.4632 22.6146ZM55.0535 22.6146C55.0535 20.3273 53.8584 18.8236 52.0351 18.8236C50.2438 18.8236 49.039 20.359 49.039 22.6146C49.039 24.891 50.2438 26.4154 52.0351 26.4154C53.8585 26.4154 55.0535 24.9226 55.0535 22.6146Z" fill="white"/>
<path d="M70.0349 22.6146C70.0349 26.1254 68.1345 28.381 65.2677 28.381C64.5415 28.4186 63.8193 28.2531 63.1837 27.9036C62.5482 27.554 62.025 27.0345 61.6741 26.4044H61.6198V32.0002H59.2754V16.9652H61.5447V18.8443H61.5878C61.9549 18.2173 62.4869 17.7004 63.1273 17.3487C63.7677 16.997 64.4925 16.8237 65.2246 16.847C68.1235 16.847 70.0349 19.1136 70.0349 22.6146ZM67.6245 22.6146C67.6245 20.3273 66.4295 18.8236 64.6062 18.8236C62.8149 18.8236 61.61 20.359 61.61 22.6146C61.61 24.891 62.8149 26.4154 64.6062 26.4154C66.4295 26.4154 67.6245 24.9226 67.6245 22.6146Z" fill="white"/>
<path d="M78.3421 23.9452C78.5158 25.4819 80.025 26.4908 82.0873 26.4908C84.0634 26.4908 85.4851 25.4818 85.4851 24.0963C85.4851 22.8935 84.6277 22.1733 82.5974 21.6798L80.5671 21.196C77.6904 20.5087 76.355 19.178 76.355 17.0187C76.355 14.3451 78.7105 12.5086 82.0541 12.5086C85.3656 12.5086 87.6349 14.3451 87.7113 17.0187H85.3447C85.203 15.4723 83.9106 14.5388 82.022 14.5388C80.1334 14.5388 78.8411 15.4832 78.8411 16.8578C78.8411 17.9533 79.6665 18.598 81.6857 19.0915L83.4117 19.5107C86.6259 20.2625 87.9601 21.5396 87.9601 23.8062C87.9601 26.7052 85.6268 28.5209 81.9136 28.5209C78.4394 28.5209 76.0937 26.7479 75.9422 23.9451L78.3421 23.9452Z" fill="white"/>
<path d="M93.0226 14.2916V16.9652H95.1945V18.8016H93.0226V25.0299C93.0226 25.9975 93.4575 26.4483 94.4122 26.4483C94.6701 26.4439 94.9275 26.426 95.1835 26.3947V28.2201C94.7542 28.2995 94.3179 28.3354 93.8813 28.3274C91.5689 28.3274 90.667 27.4683 90.667 25.2772V18.8016H89.0063V16.9652H90.667V14.2916H93.0226Z" fill="white"/>
<path d="M96.4509 22.6148C96.4509 19.0602 98.5674 16.8265 101.868 16.8265C105.179 16.8265 107.286 19.0601 107.286 22.6148C107.286 26.1792 105.191 28.4031 101.868 28.4031C98.5465 28.4031 96.4509 26.1792 96.4509 22.6148ZM104.897 22.6148C104.897 20.1764 103.768 18.7372 101.868 18.7372C99.9682 18.7372 98.8385 20.1874 98.8385 22.6148C98.8385 25.063 99.9682 26.4912 101.868 26.4912C103.768 26.4912 104.897 25.063 104.897 22.6148Z" fill="white"/>
<path d="M109.219 16.9651H111.455V18.888H111.51C111.661 18.2875 112.017 17.7567 112.517 17.385C113.017 17.0133 113.632 16.8233 114.257 16.8469C114.527 16.846 114.796 16.875 115.06 16.9334V19.1025C114.719 18.9994 114.363 18.9521 114.007 18.9624C113.666 18.9487 113.327 19.0081 113.011 19.1365C112.696 19.2649 112.413 19.4592 112.181 19.7061C111.949 19.9531 111.773 20.2468 111.667 20.5671C111.56 20.8873 111.525 21.2266 111.564 21.5616V28.2627H109.219L109.219 16.9651Z" fill="white"/>
<path d="M125.869 24.9448C125.554 26.9956 123.535 28.4031 120.951 28.4031C117.628 28.4031 115.566 26.2011 115.566 22.6684C115.566 19.1247 117.64 16.8265 120.853 16.8265C124.013 16.8265 126 18.9736 126 22.3991V23.1936H117.933V23.3338C117.896 23.7495 117.948 24.1684 118.087 24.5625C118.226 24.9566 118.448 25.317 118.739 25.6197C119.03 25.9223 119.382 26.1604 119.773 26.318C120.163 26.4756 120.584 26.5492 121.005 26.5338C121.559 26.5851 122.115 26.4582 122.591 26.1719C123.066 25.8856 123.435 25.4552 123.643 24.9447L125.869 24.9448ZM117.944 21.5729H123.654C123.675 21.199 123.618 20.8249 123.486 20.474C123.354 20.1231 123.15 19.803 122.887 19.5338C122.624 19.2645 122.307 19.052 121.957 18.9094C121.607 18.7669 121.231 18.6975 120.853 18.7055C120.471 18.7033 120.092 18.7758 119.739 18.919C119.386 19.0622 119.065 19.2732 118.794 19.5398C118.524 19.8063 118.309 20.1233 118.163 20.4722C118.018 20.8212 117.943 21.1953 117.944 21.5729Z" fill="white"/>
<path d="M34.2248 4.25079H35.2313C35.4046 4.27214 35.5804 4.25774 35.7478 4.20852C35.9151 4.1593 36.0704 4.07632 36.2037 3.96481C36.3371 3.85331 36.4456 3.71568 36.5225 3.56063C36.5994 3.40557 36.643 3.23643 36.6505 3.06388C36.6505 2.37721 36.1282 1.93364 35.2424 1.93364C35.0649 1.9091 34.8842 1.92 34.711 1.96568C34.5378 2.01136 34.3756 2.0909 34.234 2.19961C34.0924 2.30832 33.9743 2.44398 33.8866 2.5986C33.7989 2.75322 33.7434 2.92365 33.7234 3.09983H32.6182C32.6373 2.78001 32.7226 2.46749 32.8691 2.18172C33.0155 1.89595 33.2198 1.64305 33.4693 1.43878C33.7188 1.2345 34.0082 1.08321 34.3194 0.994341C34.6305 0.905469 34.9569 0.880913 35.2781 0.922199C36.7601 0.922199 37.8037 1.74292 37.8037 2.92435C37.8072 3.32014 37.6733 3.70513 37.4244 4.01506C37.1755 4.325 36.8267 4.54111 36.4362 4.62734V4.71508C36.8992 4.73539 37.3352 4.93619 37.6489 5.27358C37.9627 5.61097 38.1286 6.0575 38.1104 6.51555C38.0762 6.84485 37.9758 7.16406 37.8152 7.45449C37.6546 7.74492 37.437 8.00071 37.1752 8.20688C36.9133 8.41304 36.6125 8.56543 36.2903 8.65511C35.9682 8.74479 35.6312 8.76996 35.2991 8.72914C34.9663 8.77402 34.6277 8.75216 34.3036 8.66486C33.9795 8.57756 33.6765 8.42661 33.4127 8.22101C33.1488 8.01541 32.9295 7.75936 32.7679 7.46814C32.6062 7.17692 32.5055 6.85648 32.4717 6.52592H33.594C33.6618 7.23819 34.3233 7.69764 35.2991 7.69764C36.2748 7.69764 36.9117 7.18157 36.9117 6.45407C36.9117 5.71621 36.3117 5.26167 35.2633 5.26167H34.2248V4.25079Z" fill="white"/>
<path d="M39.3857 6.95911C39.3857 5.94768 40.1483 5.36458 41.4986 5.28171L43.0373 5.19398V4.70898C43.0373 4.11552 42.6418 3.78041 41.8743 3.78041C41.2485 3.78041 40.8161 4.00768 40.6904 4.40494H39.605C39.7196 3.43981 40.6387 2.82077 41.9273 2.82077C43.3515 2.82077 44.1547 3.52206 44.1547 4.70898V8.54817H43.0743V7.75852H42.9856C42.8055 8.04177 42.5527 8.27268 42.2529 8.42768C41.9532 8.58267 41.6172 8.6562 41.2793 8.64074C41.0408 8.66528 40.7998 8.64011 40.5718 8.56687C40.3437 8.49362 40.1337 8.37392 39.9553 8.21548C39.7769 8.05704 39.6341 7.86339 39.536 7.64699C39.4379 7.4306 39.3867 7.19627 39.3857 6.95911ZM43.0373 6.47898V6.00922L41.6501 6.09695C40.8678 6.14874 40.5129 6.41196 40.5129 6.90732C40.5129 7.41303 40.9564 7.70732 41.5663 7.70732C41.745 7.72522 41.9255 7.70738 42.0971 7.65486C42.2687 7.60234 42.4278 7.51622 42.5651 7.40161C42.7023 7.28701 42.8149 7.14627 42.896 6.98776C42.9771 6.82926 43.0252 6.65623 43.0373 6.47898Z" fill="white"/>
<path d="M47.1299 3.86275V8.54825H46.0088V2.9293H49.7491V3.86269L47.1299 3.86275Z" fill="white"/>
<path d="M56.5432 5.73736C56.5432 7.5226 55.6303 8.64189 54.1963 8.64189C53.8442 8.66567 53.4927 8.58948 53.183 8.42227C52.8733 8.25506 52.6183 8.00381 52.4481 7.69809H52.3594V10.4174H51.2383V2.93033H52.3175V3.85894H52.4013C52.5745 3.54254 52.8328 3.27966 53.1476 3.09935C53.4624 2.91903 53.8215 2.82829 54.1852 2.83714C55.6303 2.83711 56.5432 3.9515 56.5432 5.73736ZM55.39 5.73736C55.39 4.55045 54.8221 3.83331 53.8723 3.83331C52.9286 3.83331 52.3384 4.56568 52.3384 5.74224C52.3384 6.91332 52.9286 7.6463 53.8673 7.6463C54.8221 7.64629 55.39 6.92914 55.39 5.73736Z" fill="white"/>
<path d="M58.0363 10.5608V9.60599C58.1577 9.62124 58.2799 9.62816 58.4022 9.62671C58.641 9.64421 58.878 9.57384 59.0676 9.42912C59.2573 9.2844 59.3862 9.07551 59.4297 8.84254L59.5134 8.56896L57.4573 2.9293H58.6782L60.1024 7.39241H60.1911L61.6103 2.9293H62.7992L60.6814 8.78039C60.196 10.1477 59.6589 10.5864 58.5008 10.5864C58.4072 10.5863 58.1411 10.576 58.0363 10.5608Z" fill="white"/>
<path d="M63.6729 6.95383H64.789C64.8987 7.44923 65.3681 7.70753 66.0247 7.70753C66.7713 7.70753 67.2296 7.38217 67.2296 6.87647C67.2296 6.3348 66.8181 6.07646 66.0247 6.07646H65.1746V5.21492H66.0099C66.6875 5.21492 67.0325 4.95719 67.0325 4.48742C67.0325 4.07493 66.6986 3.75993 66.0099 3.75993C65.3828 3.75993 64.9245 4.02315 64.8518 4.46672H63.7714C63.8522 3.95703 64.132 3.49905 64.5506 3.19129C64.9692 2.88353 65.4932 2.75057 66.0099 2.82101C67.3602 2.82101 68.1326 3.42482 68.1326 4.37411C68.1389 4.63846 68.0533 4.89693 67.89 5.10632C67.7268 5.31571 67.4958 5.46332 67.2357 5.52447V5.6122C67.5454 5.65171 67.8296 5.80227 68.0344 6.03533C68.2393 6.26838 68.3505 6.5677 68.347 6.87649C68.347 7.94465 67.4279 8.65137 66.0247 8.65137C64.7841 8.65134 63.7763 8.08896 63.6729 6.95383Z" fill="white"/>
<path d="M69.9612 8.54825V2.9293H71.0724V6.79409H71.1611L73.7791 2.92931H74.8903V8.54826H73.7791V4.66278H73.6953L71.0724 8.54827L69.9612 8.54825Z" fill="white"/>
<path d="M81.0121 3.86366H79.2232V8.54916H78.1009V3.86366H76.312V2.93027H81.0121V3.86366Z" fill="white"/>
<path d="M87.0512 7.03112C86.8985 7.54463 86.5682 7.98874 86.118 8.28587C85.6679 8.58299 85.1266 8.71425 84.5885 8.65672C84.2143 8.66649 83.8423 8.59559 83.4986 8.44893C83.1548 8.30228 82.8474 8.08338 82.5977 7.80743C82.3481 7.53148 82.1621 7.2051 82.0527 6.85093C81.9434 6.49677 81.9132 6.1233 81.9644 5.75646C81.9146 5.38849 81.9453 5.01422 82.0544 4.659C82.1635 4.30377 82.3485 3.97588 82.5968 3.69752C82.8452 3.41916 83.1511 3.19683 83.4939 3.04558C83.8366 2.89433 84.2083 2.8177 84.5836 2.82086C86.1642 2.82086 87.119 3.88902 87.119 5.65347V6.04042H83.1077V6.10256C83.0899 6.30881 83.116 6.51645 83.1842 6.71214C83.2524 6.90783 83.3612 7.08724 83.5037 7.23884C83.6462 7.39044 83.8192 7.51088 84.0115 7.59242C84.2039 7.67395 84.4113 7.71478 84.6206 7.71228C84.8885 7.74398 85.16 7.69614 85.4004 7.57484C85.6409 7.45354 85.8394 7.26427 85.9708 7.03108L87.0512 7.03112ZM83.1077 5.22029H85.9757C85.9899 5.0318 85.964 4.84247 85.8998 4.66444C85.8356 4.48642 85.7345 4.32365 85.6029 4.18657C85.4714 4.0495 85.3123 3.94115 85.1359 3.8685C84.9595 3.79584 84.7697 3.76048 84.5786 3.76468C84.3847 3.76207 84.1922 3.79794 84.0125 3.87018C83.8328 3.94241 83.6695 4.04954 83.5324 4.18524C83.3953 4.32094 83.2871 4.48245 83.2141 4.66023C83.1412 4.83801 83.1049 5.02844 83.1077 5.22029Z" fill="white"/>
<path d="M91.8042 2.9293H94.3655C95.4767 2.9293 96.1284 3.4862 96.1284 4.35808C96.1301 4.63474 96.0358 4.90359 95.8611 5.11964C95.6864 5.3357 95.4419 5.48586 95.1687 5.54499V5.63273C95.5005 5.65346 95.8115 5.79944 96.0376 6.0405C96.2636 6.28157 96.3874 6.59932 96.3834 6.9281C96.3834 7.90845 95.6381 8.54822 94.3913 8.54822H91.8042V2.9293ZM92.9154 3.78049V5.23547H94.0267C94.7043 5.23547 95.0283 4.97775 95.0283 4.50249C95.0283 4.06441 94.7462 3.78048 94.1511 3.78048L92.9154 3.78049ZM92.9154 6.05074V7.69707H94.2448C94.9076 7.69707 95.2624 7.40766 95.2624 6.87635C95.2624 6.31397 94.8608 6.05075 94.1043 6.05075L92.9154 6.05074Z" fill="white"/>
</g>
</svg>
