<svg width="26" height="26" viewBox="0 0 26 26" fill="none" xmlns="http://www.w3.org/2000/svg">
<g id="Icons / Entry">
<path id="Shape" fill-rule="evenodd" clip-rule="evenodd" d="M13.6372 18.2C15.852 18.2 17.6519 15.873 17.6519 13C17.6519 10.127 15.852 7.8 13.6372 7.8V3.25L18.9902 3.25C20.4683 3.25 21.6666 4.41406 21.6666 5.85L21.6666 20.15C21.6666 21.5859 20.4683 22.75 18.9902 22.75H13.6372V18.2ZM6.55495 8.60751C6.33811 8.96716 6.27318 9.39827 6.37448 9.80582C6.47578 10.2134 6.73499 10.5639 7.09499 10.7802C7.45481 11.0116 7.80062 11.264 8.13058 11.5362L3.55618 11.892C2.77449 11.9432 2.16663 12.5921 2.16663 13.3754C2.16663 14.1587 2.77449 14.8076 3.55618 14.8588L8.156 15.2209C7.82388 15.499 7.47133 15.7517 7.10134 15.9769C6.60209 16.2604 6.2956 16.7921 6.30052 17.3661C6.30545 17.9402 6.62103 18.4665 7.12507 18.7414C7.62912 19.0162 8.24252 18.9964 8.7278 18.6896C10.5393 17.5388 12.0751 16.0032 13.226 14.1917L13.5373 13.6708C13.6458 13.4911 13.6458 13.2661 13.5373 13.0863L13.226 12.5654C12.074 10.751 10.536 9.21305 8.72145 8.06116C7.97213 7.61503 7.00307 7.85941 6.55495 8.60751Z" fill="#111111"/>
</g>
</svg>
