<svg width="14" height="14" viewBox="0 0 14 14" fill="none" xmlns="http://www.w3.org/2000/svg">
<g id="funnel">
<g id="Icons 24/error 24">
<path id="Vector" d="M1.61548 2.74181C1.61548 2.88815 1.66725 3.02944 1.76045 3.13793L5.70054 7.67443C5.79373 7.78292 5.84551 7.92421 5.84551 8.07055V10.7702C5.84551 11.0226 5.99824 11.2446 6.22347 11.3253L7.64728 11.8249C7.8958 11.9132 8.15468 11.7164 8.15468 11.4389V8.06803C8.15468 7.92169 8.20646 7.7804 8.29965 7.67191L12.2397 3.13541C12.3329 3.02692 12.3847 2.88562 12.3847 2.73929C12.3847 2.41633 12.1362 2.15393 11.8307 2.15393H2.16947C1.864 2.15645 1.61548 2.41885 1.61548 2.74181Z" fill="#111111"/>
</g>
</g>
</svg>
