<svg width="118" height="30" viewBox="0 0 118 30" fill="none" xmlns="http://www.w3.org/2000/svg">
<g id="logo">
<path id="Vector" d="M46.9408 18.2927L43.6517 30L41.662 29.3544L42.7177 25.6098C39.7129 28.1492 35.8553 29.7848 32.0383 29.7848C29.4801 29.7848 27.4904 29.0531 26.1504 27.7188C23.8359 29.01 21.2777 29.7848 18.557 29.7848C9.58307 29.7848 6.82185 21.8651 6.41578 14.1176L1.9897 30L0 29.3544L8.20246 0H14.8196C19.4893 0 23.1032 2.19512 23.1032 6.97274C23.1032 12.3529 18.3929 15.0646 11.7335 15.0646H8.76925C8.97228 19.5839 10.7996 27.6327 18.8396 27.6327C20.9917 27.6327 23.0626 27.0301 24.9305 25.9971C24.4433 25.0072 24.1996 23.802 24.1996 22.4677C24.1996 16.2697 28.4633 11.2769 31.996 11.2769C34.1481 11.2769 35.2445 12.9125 35.2445 15.0215C35.2445 18.7231 32.3615 23.4146 28.0166 26.5136C28.9505 27.2453 30.2499 27.6327 31.8336 27.6327C35.813 27.6327 40.4015 25.4806 43.6906 22.1664L49.9034 0L51.8931 0.645623L47.2233 17.2597L56.644 11.0617L57.7404 12.8694L49.1318 18.5079C50.0658 24.9641 53.0706 27.6327 56.441 27.6327C62.1258 27.6327 65.4149 21.5638 64.7652 11.406H76.7847V13.472C73.9422 16.7001 72.1962 20.4878 72.1962 23.4146C72.1962 26.1263 73.861 27.6327 76.541 27.6327C79.2617 27.6327 81.8198 26.2123 83.2817 25.0072C83.0786 24.1894 82.9568 23.2855 82.9568 22.3386C82.9568 16.4419 86.4083 11.2769 91.0781 11.2769C94.4484 11.2769 96.9254 14.1176 96.9254 18.7231C96.9254 22.2525 95.7478 25.3945 93.7987 27.4175C97.372 26.7288 101.189 25.3515 104.072 23.1994C104.031 22.9412 104.031 22.6399 104.031 22.3386C104.031 16.4419 107.483 11.2769 112.153 11.2769C115.523 11.2769 118 14.1176 118 18.7231C118 24.6198 114.548 29.7848 109.879 29.7848C107.361 29.7848 105.331 28.1923 104.478 25.4806C100.377 28.2353 94.7732 29.7848 90.0223 29.7848C87.3423 29.7848 85.3526 28.7518 84.1344 26.901C82.3071 28.3214 79.4647 29.7848 76.3786 29.7848C72.5616 29.7848 69.9628 27.5466 69.9628 23.6729C69.9628 20.3156 71.4653 16.7862 73.9422 13.5151H66.958C67.161 23.6298 62.8161 29.7848 56.2379 29.7848C50.839 29.7848 47.7123 25.2224 46.9408 18.2927ZM9.7438 2.15029L6.77955 12.8676H12.6674C18.3117 12.8676 20.8293 10.2421 20.8293 7.05703C20.8293 4.21628 18.799 2.15029 14.7384 2.15029H9.7438ZM26.7984 24.835C30.3312 22.2525 32.8081 18.3788 32.8893 15.0646C32.93 14.2037 32.6457 13.429 31.7524 13.429C29.7221 13.429 26.433 17.604 26.433 22.6399C26.433 23.4577 26.5548 24.1894 26.7984 24.835ZM94.6937 18.8504C94.6937 15.7084 93.1913 13.4272 90.8767 13.4272C87.547 13.4272 85.1919 17.9035 85.1919 22.2077C85.1919 25.3497 86.6943 27.6309 89.0494 27.6309C92.4604 27.6327 94.6937 23.1564 94.6937 18.8504ZM115.77 18.8504C115.77 15.7084 114.268 13.4272 111.953 13.4272C108.623 13.4272 106.268 17.9035 106.268 22.2077C106.268 25.3497 107.771 27.6309 110.085 27.6309C113.415 27.6327 115.77 23.1564 115.77 18.8504Z" fill="#111111"/>
</g>
</svg>
