<svg width="24" height="24" viewBox="0 0 24 24" fill="none" xmlns="http://www.w3.org/2000/svg">
<g opacity="0.3">
<path d="M11.9955 4C8.35962 4 4.7237 5.80711 2.11387 8.74905C1.96665 8.9104 1.96218 9.18469 2.10048 9.36218L3.29164 10.8627C3.42994 11.0402 3.66192 11.0456 3.80914 10.8789C4.84861 9.71715 6.03531 8.79208 7.34691 8.13592C8.81913 7.39371 10.385 7.02261 12 7.02261C13.615 7.02261 15.1809 7.39909 16.6531 8.13592C17.9647 8.79745 19.1514 9.71715 20.1909 10.8789C20.3381 11.0456 20.5701 11.0402 20.7084 10.8627L21.8995 9.36218C22.0378 9.19007 22.0334 8.91578 21.8861 8.74905C19.2674 5.80711 15.6315 4 11.9955 4Z" fill="#111111"/>
<path d="M5.60865 13.2373L6.88971 14.6191C7.02857 14.7656 7.24805 14.7754 7.39138 14.6338C8.65901 13.4082 10.285 12.7344 12.0005 12.7344C13.7161 12.7344 15.342 13.4033 16.6097 14.6338C16.753 14.7754 16.9725 14.7656 17.1113 14.6191L18.3924 13.2373C18.5402 13.0762 18.5357 12.8174 18.379 12.666C16.6992 11.0107 14.4551 10 11.996 10C9.53694 10 7.29284 11.0107 5.61313 12.666C5.46531 12.8174 5.46083 13.0762 5.60865 13.2373ZM12.005 15.5176C10.9569 15.5176 10.0073 15.9961 9.34433 16.7627C9.20996 16.9189 9.21444 17.1582 9.35329 17.3096L11.7452 19.8828C11.8885 20.0391 12.1215 20.0391 12.2648 19.8828L14.6567 17.3096C14.7956 17.1582 14.8 16.9189 14.6657 16.7627C14.0027 16.001 13.0531 15.5176 12.005 15.5176Z" fill="#111111"/>
</g>
</svg>
