<svg width="24" height="24" viewBox="0 0 24 24" fill="none" xmlns="http://www.w3.org/2000/svg">
<g id="search">
<path id="Shape" fill-rule="evenodd" clip-rule="evenodd" d="M18.8736 15.8705L16.1659 14.1294C18.0529 11.2421 17.4548 7.40395 14.7777 5.22133C12.1006 3.0387 8.20222 3.21097 5.72995 5.62115C3.25767 8.03133 3.00364 11.9072 5.14036 14.6166C7.27707 17.3261 11.1199 18.001 14.0593 16.1831L15.8084 18.8783C15.9812 19.1434 16.2082 19.3693 16.4745 19.5413C17.5049 20.2007 18.8772 19.9038 19.5397 18.8783C20.2022 17.8527 19.904 16.4868 18.8736 15.8274V15.8705ZM10.4363 15.1051C7.89405 15.1051 5.83315 13.0537 5.83315 10.5233C5.83315 7.99286 7.89405 5.94153 10.4363 5.94153C12.9785 5.94153 15.0394 7.99286 15.0394 10.5233C15.0394 11.7385 14.5545 12.9038 13.6912 13.7631C12.828 14.6223 11.6571 15.1051 10.4363 15.1051Z" fill="#ACACAC"/>
</g>
</svg>
